<?xml version="1.0" encoding="UTF-8" standalone="no"?>
<!DOCTYPE svg PUBLIC "-//W3C//DTD SVG 1.1//EN" "http://www.w3.org/Graphics/SVG/1.1/DTD/svg11.dtd">
<svg width="100%" height="100%" viewBox="0 0 299 48" version="1.1" xmlns="http://www.w3.org/2000/svg" xmlns:xlink="http://www.w3.org/1999/xlink" xml:space="preserve" xmlns:serif="http://www.serif.com/" style="fill-rule:evenodd;clip-rule:evenodd;stroke-linejoin:round;stroke-miterlimit:2;">
    <g>
        <g transform="matrix(1,0,0,1,-36.97,-37.62)">
            <path d="M110.11,40.31C117.982,54.498 116.5,72.125 106.37,84.8L84.93,84.8L91.53,73.13L82.8,73.13L93.09,55L101.87,55L110.11,40.33L110.11,40.31ZM67.77,84.8L45.91,84.8C35.584,72.172 34.074,54.399 42.12,40.21L56.3,64.84L71.93,37.62L94.93,37.62L67.78,84.78L67.77,84.8Z" style="fill:white;"/>
        </g>
        <g transform="matrix(1,0,0,1,-36.97,-37.62)">
            <path d="M128.18,62.9C128.18,50.31 134.45,44.26 144.75,44.26C155.05,44.26 161.31,50.31 161.31,62.9C161.31,75.49 155,81.47 144.75,81.47C134.5,81.47 128.18,75.37 128.18,62.9ZM131.9,62.9C131.9,73.25 136.62,78.18 144.75,78.18C152.88,78.18 157.59,73.25 157.59,62.9C157.59,52.55 152.87,47.55 144.75,47.55C136.63,47.55 131.9,52.49 131.9,62.9Z" style="fill:white;fill-rule:nonzero;"/>
        </g>
        <g transform="matrix(1,0,0,1,-36.97,-37.62)">
            <path d="M188.38,45.75C188.649,45.047 189.327,44.58 190.08,44.58C190.083,44.58 190.087,44.58 190.09,44.58C191.072,44.58 191.88,45.388 191.88,46.37C191.88,46.377 191.88,46.383 191.88,46.39C191.871,46.66 191.817,46.927 191.72,47.18L179.3,79.93C179.064,80.665 178.377,81.167 177.605,81.167C176.833,81.167 176.146,80.665 175.91,79.93L163.49,47.18C163.393,46.927 163.339,46.66 163.33,46.39C163.33,46.383 163.33,46.377 163.33,46.37C163.33,45.388 164.138,44.58 165.12,44.58C165.123,44.58 165.127,44.58 165.13,44.58C165.883,44.58 166.561,45.047 166.83,45.75L177.6,74.31L188.38,45.75Z" style="fill:white;fill-rule:nonzero;"/>
        </g>
        <g transform="matrix(1,0,0,1,-36.97,-37.62)">
            <path d="M199.42,64.06L199.42,79.35C199.423,79.395 199.425,79.44 199.425,79.484C199.425,80.477 198.608,81.294 197.615,81.294C196.622,81.294 195.805,80.477 195.805,79.484C195.805,79.44 195.807,79.395 195.81,79.35L195.81,46.35C195.807,46.305 195.805,46.26 195.805,46.216C195.805,45.223 196.622,44.406 197.615,44.406C198.608,44.406 199.425,45.223 199.425,46.216C199.425,46.26 199.423,46.305 199.42,46.35L199.42,60.77L217.9,60.77L217.9,46.39C217.897,46.345 217.895,46.3 217.895,46.256C217.895,45.263 218.712,44.446 219.705,44.446C220.698,44.446 221.515,45.263 221.515,46.256C221.515,46.3 221.513,46.345 221.51,46.39L221.51,79.39C221.513,79.435 221.515,79.48 221.515,79.524C221.515,80.517 220.698,81.334 219.705,81.334C218.712,81.334 217.895,80.517 217.895,79.524C217.895,79.48 217.897,79.435 217.9,79.39L217.9,64.06L199.42,64.06Z" style="fill:white;fill-rule:nonzero;"/>
        </g>
        <g transform="matrix(1,0,0,1,-36.97,-37.62)">
            <path d="M238.55,55.89C241.695,55.755 244.727,57.113 246.72,59.55C246.957,59.829 247.088,60.184 247.09,60.55C247.09,60.56 247.09,60.57 247.09,60.58C247.09,61.409 246.409,62.09 245.58,62.09C245.57,62.09 245.56,62.09 245.55,62.09C245.049,62.093 244.576,61.855 244.28,61.45C242.88,59.756 240.742,58.842 238.55,59C233.66,59 231.06,62.13 231.06,68.66C231.06,75.19 233.66,78.37 238.55,78.37C240.802,78.349 242.978,77.542 244.7,76.09C244.979,75.853 245.334,75.722 245.7,75.72C246.545,75.72 247.24,76.415 247.24,77.26C247.236,77.785 246.979,78.277 246.55,78.58C244.321,80.475 241.476,81.496 238.55,81.45C231.7,81.45 227.61,77.36 227.61,68.66C227.61,59.96 231.7,55.89 238.55,55.89Z" style="fill:white;fill-rule:nonzero;"/>
        </g>
        <g transform="matrix(1,0,0,1,-36.97,-37.62)">
            <path d="M255.48,44.63L255.48,75C255.48,77.12 256.17,78 257.6,78C257.642,77.997 257.684,77.995 257.726,77.995C258.604,77.995 259.326,78.717 259.326,79.595C259.326,80.473 258.604,81.195 257.726,81.195C257.684,81.195 257.642,81.193 257.6,81.19C254.05,81.19 252.08,79.06 252.08,74.98L252.08,44.63C252.106,43.709 252.859,42.961 253.78,42.94C254.709,42.94 255.475,43.701 255.48,44.63Z" style="fill:white;fill-rule:nonzero;"/>
        </g>
        <g transform="matrix(1,0,0,1,-36.97,-37.62)">
            <path d="M284.41,68.63C284.41,77.33 280.16,81.42 273.26,81.42C266.36,81.42 262.12,77.33 262.12,68.63C262.12,59.93 266.42,55.89 273.26,55.89C280.1,55.89 284.41,59.92 284.41,68.63ZM280.96,68.63C280.96,61.94 278.15,58.97 273.26,58.97C268.37,58.97 265.57,61.97 265.57,68.63C265.57,75.29 268.38,78.34 273.26,78.34C278.14,78.34 281,75.42 281,68.63L280.96,68.63Z" style="fill:white;fill-rule:nonzero;"/>
        </g>
        <g transform="matrix(1,0,0,1,-36.97,-37.62)">
            <path d="M292.59,57.91L292.59,71.76C292.59,75.21 293.7,78.18 299.06,78.18C304.42,78.18 305.54,75.18 305.54,71.76L305.54,57.91C305.551,56.974 306.324,56.21 307.26,56.21C307.27,56.21 307.28,56.21 307.29,56.21C308.199,56.221 308.94,56.971 308.94,57.88C308.94,57.89 308.94,57.9 308.94,57.91L308.94,71.76C308.94,76.76 307.29,81.42 299.06,81.42C290.83,81.42 289.19,76.8 289.19,71.76L289.19,57.91C289.19,57.9 289.19,57.89 289.19,57.88C289.19,56.964 289.944,56.21 290.86,56.21C290.87,56.21 290.88,56.21 290.89,56.21C291.821,56.215 292.585,56.979 292.59,57.91Z" style="fill:white;fill-rule:nonzero;"/>
        </g>
        <g transform="matrix(1,0,0,1,-36.97,-37.62)">
            <path d="M331.6,59.34L331.6,44.63C331.6,43.697 332.367,42.93 333.3,42.93C334.233,42.93 335,43.697 335,44.63L335,71C335,78 330.65,81.46 324.6,81.46C317.75,81.46 313.71,77.37 313.71,68.67C313.71,59.97 317.54,55.93 324.38,55.93C327.185,55.878 329.858,57.141 331.6,59.34ZM331.6,63.64C331.6,63.64 329.6,58.97 324.6,58.97C319.6,58.97 317.11,62.1 317.11,68.63C317.11,75.16 319.71,78.34 324.6,78.34C328.68,78.34 331.6,76.01 331.6,70.96L331.6,63.64Z" style="fill:white;fill-rule:nonzero;"/>
        </g>
    </g>
</svg>
